<mxfile host="app.diagrams.net" agent="Mozilla/5.0 (Windows NT 10.0; Win64; x64) AppleWebKit/537.36 (KHTML, like Gecko) Chrome/141.0.0.0 Safari/537.36" version="28.2.8">
  <diagram name="Страница — 1" id="w-uNniqVlwnEFyTY3SNE">
    <mxGraphModel dx="464" dy="750" grid="1" gridSize="10" guides="1" tooltips="1" connect="1" arrows="1" fold="1" page="1" pageScale="1" pageWidth="827" pageHeight="1169" math="0" shadow="0">
      <root>
        <mxCell id="0" />
        <mxCell id="1" parent="0" />
        <mxCell id="HPSf-_g5UexKOCyyA0PZ-10" value="" style="rounded=0;whiteSpace=wrap;html=1;" parent="1" vertex="1">
          <mxGeometry x="140" y="80" width="520" height="670" as="geometry" />
        </mxCell>
        <mxCell id="HPSf-_g5UexKOCyyA0PZ-11" value="Кабинет&lt;div&gt;&amp;nbsp;начальника смены&lt;/div&gt;" style="rounded=0;whiteSpace=wrap;html=1;" parent="1" vertex="1">
          <mxGeometry x="140" y="580" width="240" height="170" as="geometry" />
        </mxCell>
        <mxCell id="HPSf-_g5UexKOCyyA0PZ-12" value="Шкаф" style="rounded=0;whiteSpace=wrap;html=1;" parent="1" vertex="1">
          <mxGeometry x="510" y="720" width="60" height="30" as="geometry" />
        </mxCell>
        <mxCell id="HPSf-_g5UexKOCyyA0PZ-14" value="Лаборатория" style="rounded=0;whiteSpace=wrap;html=1;" parent="1" vertex="1">
          <mxGeometry x="430" y="80" width="230" height="160" as="geometry" />
        </mxCell>
        <mxCell id="HPSf-_g5UexKOCyyA0PZ-15" value="" style="rounded=0;whiteSpace=wrap;html=1;" parent="1" vertex="1">
          <mxGeometry x="130" y="310" width="20" height="90" as="geometry" />
        </mxCell>
      </root>
    </mxGraphModel>
  </diagram>
</mxfile>
